<svg xmlns="http://www.w3.org/2000/svg" width="1600" height="900" viewBox="0 0 1600 900">
<g fill="none" stroke="#10113e" stroke-width="2" stroke-linejoin="round">
<path d="M487 340Q487 340 485 342Q483 344 481 346Q479 348 477 350Q475 351 474 353Q473 355 472 356Q471 358 470 360Q469 362 469 364Q469 366 468 368Q468 370 467 373Q467 375 466 378Q465 380 464 383Q463 385 462 388Q460 390 458 392Q457 394 454 396Q452 398 450 399Q447 400 444 401Q441 402 439 402Q436 403 433 403Q430 403 427 402Q424 402 422 401Q419 401 416 400Q413 399 411 398Q408 397 405 396Q403 395 400 394Q398 393 396 391Q393 390 391 388Q389 387 387 385Q385 383 383 381Q381 379 380 377Q378 374 377 372Q376 369 376 367Q375 364 375 362Q374 359 374 357Q374 354 375 352Q375 349 375 347Q376 345 376 342Q376 340 377 338Q377 336 377 333Q377 331 377 329Q378 327 378 324Q378 322 378 320Q378 317 379 315Q379 312 380 309Q380 307 381 304Q382 302 383 299Q385 297 387 295Q389 293 391 291Q393 290 396 289Q398 288 401 287Q404 286 407 286Q409 286 412 286Q415 287 418 287Q420 288 423 288Q425 289 428 290Q430 290 432 291Q434 291 437 291Q439 292 441 292Q444 292 446 291Q449 291 452 291Q454 290 457 290Q461 290 464 290Q467 290 471 290Q474 290 477 291Q481 292 484 293Q487 295 489 297Q492 299 493 302Q495 304 496 307Q497 310 498 313Q498 316 497 320Q497 323 496 326Q494 329 493 332Q491 335 489 337Z"/>
<path d="M526 340Q526 340 524 344Q521 348 519 351Q516 354 514 358Q512 361 510 364Q508 367 506 370Q504 373 503 376Q502 379 501 383Q499 386 498 390Q497 393 496 397Q494 401 492 405Q491 409 488 412Q486 416 483 419Q480 423 477 426Q474 429 470 431Q466 434 462 436Q458 438 453 439Q449 440 444 441Q439 441 435 441Q430 442 425 441Q421 441 416 440Q412 439 407 438Q403 437 398 435Q394 434 390 432Q386 430 382 428Q378 426 374 424Q370 422 366 419Q363 416 359 413Q356 410 353 407Q350 404 348 400Q345 396 343 392Q341 389 340 385Q339 380 338 376Q337 372 337 368Q336 364 336 360Q336 356 336 352Q337 348 337 344Q337 340 338 336Q338 332 339 329Q339 325 340 321Q340 317 341 313Q341 309 342 305Q342 301 343 297Q344 293 346 289Q347 285 349 281Q351 277 354 273Q356 270 359 267Q362 263 366 261Q370 258 374 256Q378 254 382 253Q387 252 391 251Q396 250 400 250Q405 250 409 251Q413 251 418 252Q422 252 426 253Q430 254 434 254Q438 255 442 255Q446 256 450 256Q454 256 458 256Q462 256 467 256Q471 256 476 256Q481 257 486 257Q491 258 496 259Q501 260 505 262Q510 264 515 266Q519 269 523 272Q527 276 529 280Q532 284 534 288Q536 293 537 298Q538 303 537 308Q537 313 536 318Q535 322 533 327Q531 332 529 336Z"/>
<path d="M566 340Q566 340 563 345Q560 351 557 356Q554 361 551 365Q548 370 545 375Q543 379 541 383Q538 388 536 393Q534 397 532 402Q530 407 528 412Q526 417 524 422Q521 427 519 432Q516 437 512 442Q509 447 505 451Q500 456 496 460Q491 464 485 467Q480 470 474 473Q468 475 462 477Q456 479 449 479Q443 480 436 480Q430 481 424 480Q417 479 411 478Q405 477 398 476Q392 474 386 472Q380 470 374 468Q369 465 363 462Q357 460 352 456Q347 453 341 450Q336 446 332 442Q327 438 323 433Q319 428 316 423Q312 418 309 413Q307 408 304 402Q302 397 301 391Q300 385 299 379Q298 374 298 368Q297 362 298 357Q298 351 298 345Q298 340 299 335Q299 329 300 324Q301 318 302 313Q302 307 303 302Q304 297 305 291Q307 285 308 280Q310 274 312 269Q314 263 317 258Q320 252 324 247Q327 243 332 238Q336 234 341 230Q346 226 352 224Q358 221 364 219Q370 217 376 216Q382 215 388 214Q394 214 401 214Q407 214 413 215Q419 215 424 216Q430 217 436 218Q441 218 447 219Q452 219 458 220Q464 220 470 221Q476 221 482 222Q488 222 494 223Q501 224 507 225Q514 226 521 228Q527 230 534 233Q540 236 546 239Q552 243 557 248Q562 253 565 258Q569 264 572 270Q575 276 576 283Q577 289 577 296Q577 303 576 309Q575 316 573 322Q571 328 568 334Z"/>
<path d="M605 340Q605 340 602 347Q598 354 595 360Q591 367 588 373Q584 379 581 385Q578 391 575 397Q572 403 569 409Q567 415 564 421Q561 427 558 434Q555 440 552 446Q549 453 545 459Q541 466 536 472Q532 478 526 483Q521 489 514 494Q508 499 501 503Q494 507 486 510Q479 513 471 515Q463 517 455 518Q447 519 438 519Q430 519 422 519Q414 518 406 517Q397 515 390 513Q382 511 374 509Q366 506 359 503Q351 500 344 497Q337 493 330 489Q323 485 317 480Q310 476 304 470Q298 465 293 459Q288 453 283 447Q279 441 275 434Q272 427 269 420Q266 413 264 405Q262 398 261 391Q260 383 259 376Q259 369 259 361Q259 354 259 347Q259 340 260 333Q261 326 262 319Q263 312 264 305Q265 298 266 291Q267 284 269 277Q271 269 273 262Q275 255 278 248Q281 241 285 234Q289 228 294 221Q299 215 304 210Q310 204 316 199Q323 195 330 191Q337 187 345 185Q352 182 360 180Q368 179 376 178Q384 177 392 178Q400 178 407 178Q415 179 423 179Q430 180 437 181Q445 182 452 183Q459 183 466 184Q474 185 481 186Q489 186 497 187Q505 188 513 189Q521 191 529 192Q537 194 546 197Q554 200 562 204Q570 207 577 212Q584 217 590 223Q596 229 601 236Q606 243 610 251Q613 259 615 267Q617 275 617 284Q617 292 616 301Q615 309 613 317Q611 325 608 332Z"/>
<path d="M644 340Q644 340 641 349Q637 357 633 365Q629 373 625 381Q621 389 617 396Q613 403 610 411Q606 418 603 425Q599 433 596 440Q592 448 588 456Q585 463 580 471Q576 479 571 486Q566 494 560 501Q554 509 547 515Q541 522 533 528Q525 534 516 538Q508 543 499 547Q489 551 480 553Q470 555 460 557Q450 558 440 558Q430 558 420 558Q410 557 400 555Q390 554 381 551Q371 549 362 546Q352 543 343 539Q334 535 325 531Q317 527 308 522Q300 517 292 511Q284 505 277 499Q270 492 263 485Q257 478 251 470Q246 463 241 454Q237 446 233 437Q230 429 227 420Q225 411 223 402Q222 393 221 384Q220 375 220 366Q220 357 220 349Q221 340 221 331Q222 323 223 314Q224 306 226 297Q227 288 229 280Q231 271 233 262Q235 254 238 245Q241 236 245 228Q249 219 253 211Q258 203 264 195Q270 188 277 181Q284 174 292 169Q300 163 308 158Q317 154 326 151Q335 147 345 145Q355 143 364 142Q374 141 383 141Q393 141 402 141Q412 142 421 143Q430 143 439 144Q448 145 457 146Q466 147 475 148Q484 149 493 150Q502 151 512 153Q521 154 531 156Q541 157 551 160Q561 163 571 166Q580 170 590 174Q599 179 608 185Q617 191 624 199Q631 206 637 215Q643 223 647 232Q652 242 654 252Q656 262 657 272Q658 282 657 292Q656 302 653 312Q651 322 648 331Z"/>
<path d="M684 340Q684 340 680 350Q675 360 671 370Q666 380 662 389Q657 398 653 407Q648 415 644 424Q640 433 636 442Q632 451 627 459Q623 468 618 477Q614 487 609 496Q603 505 597 514Q591 523 584 531Q577 539 569 547Q561 555 551 562Q542 568 532 574Q522 580 511 584Q500 588 489 591Q477 594 465 595Q454 597 442 597Q430 597 418 597Q406 596 395 594Q383 592 372 589Q361 586 349 583Q338 579 328 575Q317 570 307 565Q296 560 286 554Q276 548 267 542Q258 535 249 527Q241 520 233 511Q226 503 219 494Q213 485 207 475Q202 465 197 455Q193 445 190 434Q187 424 185 413Q183 403 182 392Q181 382 181 371Q181 361 181 350Q182 340 183 330Q183 320 185 309Q186 299 188 289Q189 279 192 269Q194 258 196 248Q199 238 203 228Q206 217 211 207Q216 197 221 188Q227 178 234 169Q241 161 249 153Q258 145 267 138Q276 131 286 126Q297 120 307 116Q318 113 330 110Q341 107 352 106Q364 105 375 104Q386 104 397 104Q408 105 419 106Q430 107 441 108Q451 109 462 110Q472 111 483 113Q494 114 505 115Q516 116 527 118Q538 120 550 122Q561 124 573 128Q584 131 596 135Q607 139 618 145Q629 151 639 158Q649 165 658 174Q666 183 673 193Q680 203 685 214Q690 225 693 236Q696 248 697 260Q698 272 697 284Q696 295 693 307Q691 318 687 329Z"/>
<path d="M723 340Q723 340 719 352Q714 364 709 375Q704 386 699 396Q694 407 689 417Q683 428 679 438Q674 448 669 458Q664 468 659 479Q654 489 649 499Q643 510 637 520Q631 531 624 541Q616 551 608 561Q600 570 590 579Q581 588 570 596Q559 603 548 610Q536 616 523 621Q511 626 497 629Q484 632 471 634Q457 636 444 636Q430 636 416 635Q403 634 390 632Q376 630 363 627Q350 624 337 620Q324 616 312 611Q300 605 288 600Q276 594 264 587Q253 580 242 572Q232 564 222 556Q212 547 203 537Q195 528 187 517Q179 507 173 496Q167 484 162 473Q157 461 153 449Q150 437 147 425Q145 413 144 400Q143 388 142 376Q142 364 142 352Q143 340 144 328Q145 316 146 305Q148 293 150 281Q152 269 154 257Q157 246 160 234Q163 222 168 210Q172 198 177 187Q183 176 189 165Q196 154 204 143Q212 133 222 124Q231 115 242 107Q253 99 264 93Q276 87 289 82Q301 78 314 75Q327 72 340 70Q353 68 366 68Q379 67 392 68Q405 68 417 69Q430 70 442 71Q455 72 467 74Q479 75 491 77Q504 78 516 80Q529 82 542 84Q555 86 568 89Q581 91 594 95Q608 99 621 104Q634 109 646 116Q659 123 670 131Q682 140 691 150Q701 160 709 171Q717 182 723 195Q729 208 732 221Q736 234 737 248Q738 262 737 275Q736 289 734 302Q731 315 727 327Z"/>
<path d="M1298 620Q1298 620 1297 623Q1297 625 1296 628Q1295 630 1294 633Q1294 635 1293 637Q1292 640 1291 642Q1290 644 1288 646Q1287 649 1286 651Q1285 653 1284 656Q1283 658 1282 660Q1280 662 1279 665Q1278 667 1276 669Q1274 672 1273 674Q1271 676 1269 678Q1266 680 1264 681Q1262 683 1259 684Q1257 685 1254 686Q1251 686 1248 686Q1246 686 1243 686Q1240 686 1237 685Q1235 684 1232 683Q1230 682 1227 680Q1225 679 1223 677Q1221 676 1219 674Q1216 673 1214 672Q1212 670 1210 669Q1208 668 1206 666Q1204 665 1202 664Q1199 663 1197 662Q1194 660 1192 659Q1189 657 1187 656Q1184 654 1182 652Q1180 650 1178 647Q1176 645 1174 642Q1172 639 1172 636Q1171 633 1170 630Q1170 626 1170 623Q1171 620 1172 617Q1173 614 1175 611Q1177 608 1179 606Q1181 603 1183 601Q1186 599 1188 597Q1191 596 1193 594Q1195 593 1197 592Q1200 590 1202 589Q1204 588 1205 587Q1207 585 1208 584Q1210 582 1211 580Q1212 579 1214 576Q1215 574 1216 572Q1218 570 1219 568Q1221 565 1223 563Q1225 561 1227 559Q1229 557 1232 555Q1234 554 1237 552Q1240 551 1243 550Q1246 550 1249 550Q1252 550 1255 550Q1258 551 1260 552Q1263 553 1266 554Q1268 556 1271 558Q1273 560 1275 562Q1278 564 1279 566Q1281 568 1283 571Q1285 573 1286 575Q1288 578 1289 580Q1291 583 1292 585Q1293 588 1294 590Q1295 593 1296 596Q1297 598 1297 601Q1298 604 1298 606Q1298 609 1298 612Q1298 615 1298 617Z"/>
<path d="M1335 620Q1335 620 1335 624Q1334 629 1333 633Q1332 637 1331 641Q1329 645 1328 649Q1326 653 1325 657Q1323 661 1321 664Q1320 668 1318 672Q1316 676 1314 679Q1311 683 1309 687Q1307 690 1304 694Q1302 697 1299 701Q1296 704 1293 707Q1290 711 1286 713Q1283 716 1279 719Q1275 721 1271 723Q1267 724 1262 725Q1258 726 1253 726Q1249 727 1244 726Q1240 726 1236 725Q1231 724 1227 722Q1223 721 1219 719Q1215 717 1212 715Q1208 713 1204 711Q1201 708 1197 706Q1194 704 1190 702Q1187 700 1183 697Q1180 695 1176 693Q1173 691 1169 688Q1165 686 1162 683Q1158 680 1154 677Q1151 674 1147 671Q1144 667 1141 663Q1138 659 1136 654Q1134 650 1133 645Q1131 640 1131 635Q1130 630 1131 625Q1131 620 1133 615Q1134 610 1136 606Q1138 601 1141 597Q1144 593 1147 589Q1150 586 1154 583Q1157 579 1160 577Q1164 574 1167 571Q1170 569 1173 566Q1176 564 1179 561Q1182 559 1184 556Q1187 553 1189 550Q1192 548 1194 545Q1197 541 1200 538Q1202 535 1205 532Q1208 529 1212 526Q1215 523 1219 520Q1223 517 1227 515Q1231 513 1236 512Q1240 510 1245 510Q1249 509 1254 509Q1259 509 1263 510Q1268 511 1272 512Q1277 514 1281 516Q1285 518 1289 521Q1293 524 1296 527Q1300 530 1303 534Q1306 537 1309 541Q1312 544 1315 548Q1317 552 1320 556Q1322 560 1324 564Q1326 568 1328 572Q1330 576 1331 580Q1332 585 1333 589Q1334 593 1335 598Q1336 602 1336 607Q1336 611 1336 616Z"/>
<path d="M1373 620Q1373 620 1372 626Q1371 632 1370 638Q1369 644 1367 650Q1365 655 1363 661Q1361 666 1359 672Q1357 677 1354 682Q1352 688 1349 693Q1346 698 1343 703Q1340 708 1337 713Q1333 718 1330 723Q1326 728 1322 732Q1318 737 1313 741Q1309 745 1304 749Q1299 753 1294 756Q1288 759 1282 761Q1277 763 1271 765Q1265 766 1258 767Q1252 767 1246 767Q1240 766 1234 765Q1228 764 1222 762Q1216 760 1211 758Q1205 755 1200 753Q1195 750 1190 747Q1185 744 1180 741Q1175 738 1170 735Q1166 732 1161 728Q1156 725 1151 722Q1146 719 1141 715Q1136 711 1131 707Q1126 703 1122 699Q1117 694 1113 689Q1109 684 1105 679Q1101 673 1098 667Q1096 661 1094 654Q1092 647 1091 641Q1091 634 1091 627Q1092 620 1093 613Q1095 607 1098 600Q1100 594 1104 588Q1107 583 1111 577Q1115 572 1119 568Q1123 563 1128 559Q1132 555 1136 551Q1140 547 1145 543Q1149 539 1152 536Q1156 532 1160 528Q1164 525 1167 521Q1171 517 1175 513Q1179 509 1183 504Q1187 500 1191 496Q1196 492 1201 488Q1205 485 1211 481Q1216 478 1222 475Q1228 473 1234 471Q1240 469 1246 469Q1253 468 1259 468Q1265 468 1272 470Q1278 471 1284 473Q1290 475 1296 478Q1302 481 1307 485Q1312 488 1317 492Q1322 497 1327 501Q1331 506 1335 511Q1339 516 1343 521Q1347 526 1350 531Q1353 537 1356 542Q1359 548 1362 553Q1364 559 1366 565Q1368 571 1370 577Q1371 583 1372 589Q1373 595 1373 602Q1373 608 1373 614Z"/>
<path d="M1411 620Q1411 620 1410 628Q1409 635 1407 643Q1406 651 1403 658Q1401 665 1399 673Q1396 680 1393 687Q1390 694 1387 700Q1384 707 1380 714Q1377 720 1373 727Q1369 733 1364 740Q1360 746 1355 752Q1350 758 1345 764Q1340 770 1334 775Q1328 780 1322 785Q1315 789 1308 793Q1301 797 1294 800Q1287 803 1279 804Q1271 806 1263 807Q1256 808 1248 807Q1240 807 1232 805Q1225 804 1217 802Q1210 799 1203 796Q1196 793 1189 790Q1182 787 1176 783Q1169 779 1163 775Q1157 772 1150 768Q1144 764 1138 759Q1132 755 1126 751Q1120 747 1113 742Q1107 737 1101 732Q1095 727 1089 721Q1084 715 1078 708Q1073 702 1069 694Q1064 687 1061 679Q1057 671 1055 663Q1053 655 1052 646Q1051 637 1052 629Q1052 620 1054 612Q1056 603 1059 595Q1062 587 1066 580Q1070 572 1075 565Q1080 559 1085 553Q1090 546 1095 541Q1100 535 1106 530Q1111 525 1116 520Q1121 515 1126 510Q1131 506 1136 501Q1141 496 1146 491Q1150 486 1156 481Q1161 476 1166 470Q1171 465 1177 460Q1183 455 1189 451Q1196 446 1203 442Q1210 438 1217 435Q1224 432 1232 430Q1240 428 1248 428Q1256 427 1264 427Q1272 428 1280 429Q1288 431 1296 434Q1304 436 1311 440Q1318 444 1325 448Q1332 453 1338 458Q1345 463 1350 469Q1356 475 1361 481Q1367 487 1372 493Q1376 500 1381 507Q1385 514 1389 521Q1392 528 1396 535Q1399 542 1401 550Q1404 557 1406 565Q1408 573 1409 581Q1410 589 1411 596Q1411 604 1411 612Z"/>
<path d="M1448 620Q1448 620 1447 629Q1446 639 1444 648Q1442 657 1440 666Q1437 676 1434 684Q1431 693 1427 702Q1424 710 1420 718Q1416 727 1411 735Q1407 743 1402 751Q1397 758 1392 766Q1386 774 1381 781Q1375 788 1368 795Q1362 802 1354 809Q1347 815 1339 820Q1331 826 1323 831Q1315 835 1306 839Q1297 842 1287 844Q1278 846 1268 847Q1259 848 1249 847Q1240 847 1231 845Q1221 844 1212 841Q1203 839 1195 835Q1186 832 1178 828Q1169 824 1161 819Q1154 815 1146 810Q1138 805 1131 800Q1123 796 1115 790Q1108 785 1100 780Q1093 774 1086 769Q1078 763 1071 756Q1064 750 1057 742Q1050 735 1044 727Q1038 719 1032 710Q1027 701 1023 692Q1019 682 1016 672Q1014 662 1013 651Q1011 641 1012 630Q1013 620 1015 610Q1017 599 1020 590Q1024 580 1029 571Q1033 562 1039 553Q1044 545 1050 538Q1056 530 1062 523Q1069 516 1075 510Q1081 503 1087 497Q1094 491 1100 485Q1106 479 1112 473Q1118 467 1124 461Q1130 455 1136 449Q1142 443 1149 436Q1156 430 1163 425Q1170 419 1178 413Q1186 408 1194 404Q1203 399 1212 395Q1221 392 1230 390Q1240 387 1250 387Q1260 386 1269 386Q1279 387 1289 389Q1298 391 1308 394Q1317 397 1326 402Q1335 406 1343 412Q1352 417 1359 423Q1367 430 1374 437Q1381 443 1388 451Q1394 458 1400 466Q1406 474 1411 482Q1416 490 1421 499Q1425 508 1429 516Q1433 525 1436 535Q1440 544 1442 553Q1444 563 1446 572Q1447 582 1448 591Q1449 601 1448 610Z"/>
<path d="M1486 620Q1486 620 1485 631Q1483 642 1481 653Q1479 664 1476 675Q1473 686 1470 696Q1466 706 1462 716Q1457 726 1453 736Q1448 746 1443 756Q1437 765 1432 774Q1426 784 1419 793Q1413 802 1406 810Q1399 819 1391 827Q1383 835 1375 842Q1366 850 1357 856Q1348 863 1338 868Q1328 873 1317 877Q1307 881 1296 884Q1285 886 1274 887Q1262 888 1251 888Q1240 887 1229 886Q1218 884 1207 881Q1197 878 1186 874Q1176 870 1166 865Q1157 861 1147 855Q1138 850 1129 845Q1119 839 1111 833Q1102 828 1093 821Q1084 815 1075 809Q1066 802 1058 795Q1049 788 1041 780Q1032 773 1024 764Q1016 756 1009 746Q1002 736 996 726Q990 716 985 704Q981 693 977 681Q974 669 973 657Q972 645 972 632Q973 620 975 608Q978 596 982 584Q986 573 991 562Q996 551 1003 542Q1009 532 1016 523Q1023 514 1030 505Q1037 497 1044 489Q1052 482 1059 474Q1066 467 1073 460Q1081 453 1088 445Q1095 438 1102 431Q1109 424 1117 417Q1124 410 1132 403Q1140 395 1149 389Q1158 382 1167 376Q1176 370 1186 365Q1196 359 1207 356Q1218 352 1229 349Q1240 347 1251 346Q1263 345 1274 345Q1286 346 1297 348Q1309 351 1320 355Q1331 358 1341 364Q1352 369 1361 375Q1371 382 1380 389Q1389 396 1398 404Q1406 412 1414 421Q1421 430 1428 439Q1435 448 1441 458Q1448 467 1453 477Q1459 488 1463 498Q1468 508 1472 519Q1475 530 1478 541Q1481 552 1483 563Q1485 575 1485 586Q1486 597 1486 609Z"/>
<path d="M1523 620Q1523 620 1522 633Q1521 646 1518 658Q1516 671 1512 683Q1509 696 1505 708Q1501 720 1496 731Q1491 743 1486 754Q1480 766 1474 777Q1468 787 1461 798Q1454 809 1447 819Q1439 829 1431 839Q1423 849 1414 858Q1405 868 1395 876Q1385 884 1375 892Q1364 899 1352 905Q1341 911 1329 916Q1317 920 1304 923Q1291 926 1279 927Q1266 929 1253 928Q1240 928 1227 926Q1215 924 1202 920Q1190 917 1178 912Q1167 908 1155 903Q1144 897 1133 892Q1122 886 1111 879Q1101 873 1091 866Q1080 860 1070 852Q1060 845 1050 838Q1040 830 1030 822Q1020 814 1010 805Q1001 796 992 786Q983 776 975 765Q967 754 960 742Q953 730 947 717Q942 704 939 690Q935 676 934 662Q932 648 933 634Q933 620 936 606Q939 592 943 579Q948 566 953 553Q959 541 966 530Q973 518 981 508Q989 497 997 487Q1005 478 1014 469Q1022 460 1030 451Q1039 443 1047 434Q1055 426 1064 418Q1072 410 1080 401Q1089 393 1097 385Q1106 377 1115 369Q1125 361 1135 353Q1145 345 1156 338Q1166 332 1178 326Q1190 320 1202 316Q1214 311 1227 308Q1240 306 1253 305Q1266 304 1280 304Q1293 305 1306 308Q1319 311 1332 315Q1344 320 1356 326Q1368 331 1379 339Q1391 346 1401 354Q1412 363 1421 372Q1431 381 1440 391Q1449 401 1457 412Q1465 422 1472 433Q1479 444 1485 456Q1492 467 1497 480Q1502 492 1507 504Q1511 516 1514 529Q1518 542 1520 555Q1522 568 1523 581Q1524 594 1524 607Z"/>
<path d="M1561 620Q1561 620 1559 635Q1558 649 1555 664Q1553 678 1549 692Q1545 706 1540 719Q1536 733 1530 746Q1525 759 1518 772Q1512 785 1505 797Q1498 810 1491 822Q1483 834 1474 846Q1466 857 1457 868Q1447 880 1437 890Q1427 900 1416 910Q1405 919 1392 928Q1380 936 1367 943Q1354 949 1340 955Q1327 960 1312 963Q1298 966 1284 968Q1269 969 1255 969Q1240 968 1226 966Q1211 964 1197 960Q1184 956 1170 951Q1157 946 1144 940Q1131 934 1119 928Q1106 921 1094 914Q1082 907 1071 899Q1059 892 1047 883Q1036 875 1025 867Q1013 858 1002 849Q991 839 980 829Q969 819 959 808Q949 796 940 784Q931 771 923 758Q916 744 910 729Q904 715 900 699Q896 684 894 668Q893 652 893 636Q894 620 897 604Q900 589 904 574Q909 559 916 545Q922 531 930 518Q938 505 947 493Q955 481 965 470Q974 459 983 448Q993 438 1002 428Q1011 419 1021 409Q1030 400 1039 390Q1049 381 1058 371Q1068 362 1078 353Q1088 344 1099 335Q1109 326 1121 317Q1132 309 1144 301Q1157 293 1170 287Q1183 281 1197 276Q1211 271 1225 268Q1240 265 1255 264Q1270 263 1285 264Q1300 265 1314 268Q1329 271 1343 276Q1358 281 1371 287Q1385 294 1397 302Q1410 310 1422 320Q1434 329 1445 339Q1456 350 1466 361Q1476 372 1485 384Q1494 396 1502 409Q1510 421 1518 434Q1525 447 1531 461Q1537 475 1542 489Q1547 503 1551 517Q1554 532 1557 546Q1559 561 1560 576Q1561 590 1561 605Z"/>
<path d="M916 90Q916 90 918 92Q920 95 922 97Q924 100 925 103Q926 106 926 109Q926 112 926 115Q925 117 924 120Q922 122 920 125Q918 127 916 128Q913 130 910 131Q907 132 904 133Q900 133 897 133Q894 134 891 134Q888 134 885 134Q883 134 880 134Q878 134 876 135Q873 135 871 136Q869 136 867 137Q865 138 862 139Q860 141 857 142Q855 143 852 144Q849 145 846 146Q843 146 840 146Q837 147 834 146Q831 146 828 145Q826 144 823 142Q821 141 819 139Q817 136 815 134Q814 132 813 129Q812 126 811 124Q811 121 810 119Q810 116 810 113Q810 111 810 109Q810 106 810 104Q809 102 809 100Q809 98 808 96Q808 94 807 92Q807 90 806 88Q806 86 805 83Q805 81 805 79Q804 77 805 74Q805 72 805 70Q806 67 807 65Q808 63 809 61Q810 59 812 57Q814 55 816 53Q818 52 820 50Q822 49 824 48Q826 46 828 45Q830 44 832 42Q835 41 837 40Q839 38 842 37Q844 36 846 34Q849 33 852 32Q854 31 857 30Q860 29 863 28Q866 28 869 28Q872 28 875 28Q878 29 881 30Q884 31 886 33Q889 34 891 36Q893 39 894 41Q896 44 897 47Q898 49 898 52Q899 55 899 58Q899 60 899 63Q899 65 900 67Q900 69 900 71Q901 73 901 75Q902 76 903 78Q905 79 906 81Q908 82 910 84Q912 86 914 88Z"/>
<path d="M950 90Q950 90 952 94Q954 97 956 101Q958 106 959 110Q960 114 960 118Q960 123 959 127Q958 131 956 135Q954 139 951 142Q948 145 944 148Q940 150 936 152Q932 154 927 156Q922 157 918 158Q913 159 909 159Q905 160 901 160Q897 161 893 161Q889 162 885 163Q882 163 878 164Q875 165 871 167Q868 168 864 169Q860 171 856 172Q852 173 848 174Q843 175 839 176Q834 176 830 176Q825 176 821 176Q816 175 812 173Q808 172 804 169Q800 167 797 164Q794 161 791 157Q789 154 787 150Q785 146 784 143Q783 139 782 135Q781 131 780 127Q780 124 779 120Q779 117 778 113Q778 110 777 107Q777 103 776 100Q775 97 775 93Q774 90 773 87Q773 83 772 80Q772 76 772 72Q772 69 773 65Q773 61 774 58Q775 54 777 51Q778 48 780 44Q783 41 785 38Q788 35 791 33Q794 30 797 28Q800 26 803 23Q807 21 810 19Q813 17 817 15Q820 13 824 11Q827 10 831 8Q835 6 839 4Q843 2 847 1Q851 -1 856 -2Q860 -3 865 -4Q869 -4 874 -4Q878 -4 883 -3Q888 -3 892 -1Q896 1 900 3Q904 5 907 8Q910 11 913 15Q916 18 918 22Q920 26 921 30Q922 34 923 38Q924 42 925 45Q926 49 926 52Q927 55 928 58Q929 61 930 64Q932 67 933 69Q935 72 937 75Q940 77 942 80Q945 83 947 87Z"/>
<path d="M983 90Q983 90 986 95Q988 100 990 106Q992 111 993 117Q994 122 994 128Q994 134 992 139Q991 145 988 150Q985 155 981 159Q977 164 972 167Q967 171 962 174Q956 177 950 179Q945 181 939 182Q933 184 927 185Q921 186 916 187Q911 188 905 189Q900 189 895 191Q890 192 885 193Q880 194 875 196Q870 197 865 199Q860 201 854 202Q849 204 843 205Q837 206 831 206Q825 207 819 206Q813 206 807 205Q801 204 796 201Q790 199 785 196Q780 193 776 189Q771 185 768 181Q764 176 762 171Q759 166 757 161Q755 156 753 151Q752 146 751 141Q750 136 749 131Q748 127 747 122Q746 117 745 113Q745 108 744 104Q743 99 742 95Q741 90 741 85Q740 81 740 76Q739 71 739 66Q740 61 740 56Q741 51 743 46Q744 41 747 37Q749 32 752 28Q755 24 758 20Q762 16 766 12Q770 9 774 5Q778 2 783 -1Q787 -4 792 -6Q796 -9 801 -12Q806 -14 811 -17Q816 -19 821 -22Q826 -24 831 -26Q837 -28 842 -30Q848 -32 854 -33Q860 -35 866 -36Q872 -36 878 -36Q885 -36 891 -35Q897 -34 903 -32Q908 -30 914 -27Q919 -24 923 -20Q928 -16 932 -11Q935 -7 938 -2Q941 3 943 8Q946 13 947 18Q949 23 950 28Q952 32 953 37Q954 41 956 45Q957 49 959 53Q961 57 963 61Q966 65 968 68Q971 72 974 77Q977 81 980 85Z"/>
<path d="M1016 90Q1016 90 1019 96Q1022 103 1024 110Q1026 116 1027 124Q1028 131 1028 138Q1027 145 1025 152Q1023 159 1020 165Q1016 171 1011 177Q1007 182 1001 187Q995 192 988 195Q981 199 974 202Q967 205 960 207Q952 209 945 210Q938 212 931 213Q924 214 918 216Q911 217 905 218Q899 220 892 222Q886 223 880 225Q873 227 867 229Q860 231 853 232Q846 234 839 235Q831 236 824 237Q816 237 809 236Q801 236 794 234Q786 233 779 230Q772 227 766 223Q760 219 754 214Q749 209 744 204Q740 198 736 192Q732 186 730 180Q727 174 725 168Q723 161 721 155Q720 149 718 143Q717 137 716 131Q715 125 714 119Q713 113 711 108Q710 102 709 96Q708 90 708 84Q707 78 707 72Q706 66 707 59Q707 53 708 47Q709 41 711 35Q713 29 716 23Q719 17 723 11Q727 6 731 1Q736 -4 740 -9Q745 -13 751 -17Q756 -21 762 -25Q768 -29 774 -32Q779 -36 786 -39Q792 -42 798 -45Q804 -48 811 -51Q817 -54 824 -57Q831 -59 838 -61Q845 -64 853 -65Q860 -67 868 -67Q875 -68 883 -68Q891 -68 899 -66Q906 -65 913 -62Q921 -60 927 -56Q934 -53 940 -48Q945 -43 950 -38Q955 -32 959 -26Q963 -20 966 -14Q969 -8 971 -2Q974 4 976 10Q978 16 980 21Q982 27 984 32Q986 37 988 42Q991 47 993 52Q996 57 999 62Q1003 67 1006 73Q1010 78 1013 84Z"/>
<path d="M1050 90Q1050 90 1053 98Q1056 105 1059 114Q1061 122 1062 130Q1063 139 1062 147Q1061 156 1059 164Q1056 172 1052 180Q1048 187 1042 194Q1036 201 1029 207Q1022 212 1014 217Q1006 221 997 225Q989 228 980 231Q972 234 963 236Q955 238 947 240Q938 241 930 243Q923 245 915 246Q907 248 899 250Q892 252 884 254Q876 256 868 258Q860 261 852 262Q843 264 834 265Q825 267 816 267Q807 267 798 266Q789 266 780 264Q771 262 763 258Q754 255 747 250Q739 245 733 240Q726 234 720 227Q715 221 710 213Q706 206 703 199Q699 191 696 184Q694 176 692 169Q690 161 688 154Q686 147 685 140Q683 133 682 126Q680 118 679 111Q678 104 677 97Q676 90 675 83Q674 75 674 68Q674 60 674 53Q675 45 676 38Q678 30 680 23Q683 16 686 9Q690 2 694 -5Q699 -12 704 -18Q709 -24 715 -29Q721 -35 728 -40Q734 -45 741 -49Q748 -54 755 -58Q762 -62 770 -66Q777 -70 785 -73Q792 -77 800 -80Q808 -84 816 -87Q825 -90 833 -92Q842 -95 851 -97Q860 -99 869 -99Q878 -100 888 -100Q897 -100 906 -98Q915 -96 924 -93Q933 -90 941 -86Q949 -81 956 -76Q963 -70 969 -64Q975 -58 980 -51Q985 -44 989 -36Q992 -29 996 -22Q999 -15 1001 -8Q1004 -1 1006 6Q1009 13 1011 19Q1014 25 1017 31Q1020 38 1023 44Q1027 50 1031 56Q1034 62 1038 69Q1042 76 1046 83Z"/>
</g></svg>